<svg xmlns="http://www.w3.org/2000/svg" viewBox="0 0 64 64" fill="none">
  <!-- Shield background -->
  <path d="M32 4L8 16v16c0 14.4 10.24 27.84 24 32 13.76-4.16 24-17.6 24-32V16L32 4z" fill="#1e3a5f"/>
  <path d="M32 8L12 18v14c0 12.4 8.64 24.04 20 27.6 11.36-3.56 20-15.2 20-27.6V18L32 8z" fill="#2563eb"/>
  <!-- Medical cross -->
  <rect x="26" y="20" width="12" height="28" rx="2" fill="white"/>
  <rect x="20" y="28" width="24" height="12" rx="2" fill="white"/>
  <!-- Chain links (blockchain) -->
  <circle cx="16" cy="52" r="4" stroke="#93c5fd" stroke-width="2" fill="none"/>
  <circle cx="26" cy="56" r="4" stroke="#93c5fd" stroke-width="2" fill="none"/>
  <line x1="19.5" y1="54" x2="22.5" y2="55" stroke="#93c5fd" stroke-width="2"/>
  <circle cx="48" cy="52" r="4" stroke="#93c5fd" stroke-width="2" fill="none"/>
  <circle cx="38" cy="56" r="4" stroke="#93c5fd" stroke-width="2" fill="none"/>
  <line x1="44.5" y1="54" x2="41.5" y2="55" stroke="#93c5fd" stroke-width="2"/>
</svg>
